<svg xmlns="http://www.w3.org/2000/svg" xmlns:xlink="http://www.w3.org/1999/xlink"
 version="1.1" x="0px" y="0px" viewBox="0 0 100 125" enable-background="new 0 0 100 100"
  xml:space="preserve">
  <path style="fill:#efc554;" d="M82.298,29.76c1.819-3.25,2.975-7.169,3.675-12.359c0.154-1.148-0.365-2.282-1.334-2.914  c-0.97-0.633-2.219-0.652-3.205-0.047c-3.567,2.183-7.418,3.615-12.05,4.475c-11.936-6.439-26.833-6.439-38.769,0  c-4.632-0.86-8.483-2.292-12.05-4.475c-0.986-0.605-2.235-0.586-3.205,0.047c-0.97,0.631-1.488,1.765-1.334,2.914  c0.7,5.19,1.856,9.108,3.675,12.359C11.429,37.572,8,47.337,8,57.5c0,8.572,2.347,17.344,6.438,24.062  c0.571,0.938,1.6,1.509,2.7,1.436c1.094-0.05,2.074-0.694,2.556-1.676c1.336-2.728,2.733-5.271,4.86-6.58  C31.38,86.037,44.115,85.155,50,76.057c5.861,9.06,18.608,10.004,25.446-1.315c2.127,1.31,3.524,3.853,4.86,6.58  c0.482,0.981,1.462,1.626,2.556,1.676c1.119,0.047,2.13-0.501,2.7-1.436C89.653,74.844,92,66.072,92,57.5  C92,47.337,88.571,37.572,82.298,29.76z M82.82,73.689c-1.822-2.499-4.422-4.875-8.237-5.631c-1.437-0.305-2.854,0.498-3.379,1.857  c-3.744,9.458-15.161,9.944-18.057-1.55c1.107-1.06,2.215-2.252,3.322-3.574C55.325,64.369,54.5,63.291,54.5,62c0-1.657,1.343-3,3-3  c0.995,0,1.835,0.517,2.38,1.263c0.632-0.915,1.264-1.801,1.896-2.806c0.201-0.319,0.233-0.683,0.173-1.03  c0.062-0.425,0.054-0.865-0.079-1.303c-1.533-5.026-1.678-9.108-0.482-11.984c7.251,3.302,14.682-3.707,12.068-11.118  c-3,0.077-11.25-0.665-16.098,6.049c-2.778,3.847-3.465,9.044-2.086,15.461C53.515,53.185,51.757,53,50,53s-3.514,0.185-5.271,0.531  c1.378-6.417,0.692-11.613-2.086-15.461c-4.847-6.713-13.098-5.971-16.098-6.049c-2.616,7.417,4.823,14.417,12.068,11.118  c1.195,2.877,1.05,6.959-0.482,11.984c-0.134,0.438-0.142,0.877-0.079,1.303c-0.06,0.346-0.028,0.711,0.173,1.03  c0.632,1.005,1.264,1.891,1.896,2.806C40.665,59.517,41.505,59,42.5,59c1.657,0,3,1.343,3,3c0,1.291-0.825,2.369-1.969,2.792  c1.107,1.321,2.214,2.514,3.321,3.573c-2.896,11.491-14.254,11.031-18.056,1.551c-0.542-1.398-2.014-2.145-3.379-1.857  c-3.814,0.756-6.415,3.132-8.237,5.631C15.153,68.753,14,63.005,14,57.5c0-9.456,3.426-18.504,9.647-25.481  c0.927-1.042,1.017-2.585,0.212-3.725c-1.148-1.627-2.033-3.527-2.714-5.873c2.924,1.172,6.076,2.029,9.517,2.593  c0.687,0.111,1.381-0.015,1.979-0.359c10.6-6.091,24.117-6.091,34.717,0c0.598,0.344,1.298,0.469,1.979,0.359  c3.441-0.564,6.593-1.421,9.517-2.593c-0.681,2.345-1.566,4.245-2.714,5.873c-0.804,1.14-0.715,2.684,0.212,3.725  C82.574,38.996,86,48.044,86,57.5C86,63.005,84.847,68.753,82.82,73.689z"/>
  <path style="fill:#efc554;" d="M32,65c0-1.657,1.343-3,3-3s3,1.343,3,3c0,1.657-1.343,3-3,3S32,66.657,32,65z"/>
  <path style="fill:#efc554;" d="M26,56c1.657,0,3,1.343,3,3s-1.343,3-3,3s-3-1.343-3-3S24.343,56,26,56z"/>
  <path style="fill:#efc554;" d="M68,65c0,1.657-1.343,3-3,3s-3-1.343-3-3c0-1.657,1.343-3,3-3C66.657,62,68,63.343,68,65z"/>
  <path style="fill:#efc554;" d="M77,59c0,1.657-1.343,3-3,3s-3-1.343-3-3s1.343-3,3-3S77,57.343,77,59z"/>
  <text x="0" y="115" fill="#efc554" font-size="5px" font-weight="bold" 
  font-family="'Helvetica Neue', Helvetica, Arial-Unicode, Arial, Sans-serif">
  </text><text x="0" y="120" fill="#efc554" font-size="5px" font-weight="bold" 
  font-family="'Helvetica Neue', Helvetica, Arial-Unicode, Arial, Sans-serif">
  </text></svg>